# xmcd
#
# Track frame offsets:
#	150
#	13145
#	24757
#	36222
#	42915
#	55167
#	67820
#	78327
#	88180
#	99200
#	109995
#	119865
#	130170
#	140662
#	154315
#
# Disc length: 2190 seconds
#
# Revision: 1
# Processed by: cddbd v1.4PL0 Copyright (c) Steve Scherf et al.
# Submitted via: audiograbber 1.81.03
#
DISCID=c7088c0f
DTITLE=Various Artist - Country Stars Vol 1 disk D
DYEAR=1900
DGENRE=Country
TTITLE0=Billy Joe Royal - Cherry Hill Park
TTITLE1=George Jones - White Lightin'
TTITLE2=Razzy Bailey - 9,999,999 Tears
TTITLE3=Roy Clark - Sally Was A Good Old Girl
TTITLE4=Kenny Rogers - Reuben James
TTITLE5=Kitty Wells - Mommy For A Day
TTITLE6=Conway Twitty - Let Me Be The Judge
TTITLE7=Ronnie Dove - Right Or Wrong
TTITLE8=Hank Williams - Go On And Break You Crazy Heart
TTITLE9=Patsy Cline - Honky tonk Merry Go Round
TTITLE10=George Jones - I've Got Five Dollars And It's Saturaday Night
TTITLE11=Ferlin Husky - Wings Of A Dove
TTITLE12=Patsy Cline - Three Cigarettes In An Ashtray
TTITLE13=Kitty Wells - Making Believe
TTITLE14=LeRoy Van Dyke - Walk On By
EXTD=
EXTT0=
EXTT1=
EXTT2=
EXTT3=
EXTT4=
EXTT5=
EXTT6=
EXTT7=
EXTT8=
EXTT9=
EXTT10=
EXTT11=
EXTT12=
EXTT13=
EXTT14=
PLAYORDER=
